<svg xmlns="http://www.w3.org/2000/svg" display="none">

    <symbol id="search" viewBox="0 0 24 24">
        <path d="M5 11C5 15.4183 8.58172 19 13 19C17.4183 19 21 15.4183 21 11C21 6.58172 17.4183 3 13 3C8.58172 3 5 6.58172 5 11Z"
              stroke-width="2" stroke-linecap="round" stroke-linejoin="round"/>
        <path d="M3.0001 21L7.3501 16.65" stroke-width="2" stroke-linecap="round"
              stroke-linejoin="round"/>
    </symbol>

    <symbol id="burger" viewBox="0 0 24 24">
        <path d="M21 10H3" stroke-width="2" stroke-linecap="round" stroke-linejoin="round"/>
        <path d="M21 6H3" stroke-width="2" stroke-linecap="round" stroke-linejoin="round"/>
        <path d="M21 14H3" stroke-width="2" stroke-linecap="round" stroke-linejoin="round"/>
        <path d="M21 18H3" stroke-width="2" stroke-linecap="round" stroke-linejoin="round"/>
    </symbol>

    <symbol id="star" viewBox="0 0 24 24">
        <path d="M12 2L15.09 8.26L22 9.27L17 14.14L18.18 21.02L12 17.77L5.82 21.02L7 14.14L2 9.27L8.91 8.26L12 2Z"
              stroke-width="2" stroke-linecap="round" stroke-linejoin="round"/>
    </symbol>

    <symbol id="instagram" viewBox="0 0 30 30">
        <path d="M21.25 2.5H8.75C5.29822 2.5 2.5 5.29822 2.5 8.75V21.25C2.5 24.7018 5.29822 27.5 8.75 27.5H21.25C24.7018 27.5 27.5 24.7018 27.5 21.25V8.75C27.5 5.29822 24.7018 2.5 21.25 2.5Z"
              stroke="#FF8800" stroke-width="2" stroke-linecap="round" stroke-linejoin="round"/>
        <path d="M20 14.2125C20.1543 15.2528 19.9766 16.3153 19.4922 17.2488C19.0078 18.1823 18.2414 18.9393 17.302 19.4121C16.3626 19.8849 15.2981 20.0495 14.2597 19.8824C13.2214 19.7153 12.2622 19.2251 11.5185 18.4814C10.7749 17.7378 10.2847 16.7786 10.1176 15.7403C9.9505 14.7019 10.1151 13.6374 10.5879 12.698C11.0607 11.7586 11.8177 10.9922 12.7512 10.5078C13.6847 10.0234 14.7472 9.84573 15.7875 10C16.8487 10.1574 17.8311 10.6518 18.5896 11.4104C19.3482 12.1689 19.8426 13.1513 20 14.2125Z"
              stroke="#FF8800" stroke-width="2" stroke-linecap="round" stroke-linejoin="round"/>
        <path d="M21.875 8.125H21.8875" stroke="#FF8800" stroke-width="2" stroke-linecap="round"
              stroke-linejoin="round"/>
    </symbol>

    <symbol id="twitter" viewBox="0 0 30 30">
        <path d="M28.75 3.75C27.553 4.59434 26.2276 5.24013 24.825 5.6625C24.0722 4.79688 23.0717 4.18336 21.9588 3.9049C20.8459 3.62645 19.6744 3.69649 18.6026 4.10556C17.5308 4.51464 16.6106 5.243 15.9662 6.19214C15.3219 7.14129 14.9846 8.26542 15 9.4125V10.6625C12.8033 10.7195 10.6266 10.2323 8.66376 9.2443C6.70093 8.25635 5.0129 6.79829 3.75 5C3.75 5 -1.25 16.25 10 21.25C7.42566 22.9975 4.35895 23.8737 1.25 23.75C12.5 30 26.25 23.75 26.25 9.375C26.2488 9.02681 26.2154 8.67949 26.15 8.3375C27.4258 7.07936 28.326 5.49089 28.75 3.75V3.75Z"
              stroke="#FF8800" stroke-width="2" stroke-linecap="round" stroke-linejoin="round"/>
    </symbol>

    <symbol id="fb" viewBox="0 0 30 30">
        <path d="M22.5 2.5H18.75C17.0924 2.5 15.5027 3.15848 14.3306 4.33058C13.1585 5.50269 12.5 7.0924 12.5 8.75V12.5H8.75V17.5H12.5V27.5H17.5V17.5H21.25L22.5 12.5H17.5V8.75C17.5 8.41848 17.6317 8.10054 17.8661 7.86612C18.1005 7.6317 18.4185 7.5 18.75 7.5H22.5V2.5Z"
              stroke="#FF8800" stroke-width="2" stroke-linecap="round" stroke-linejoin="round"/>
    </symbol>

    <symbol id="mail" viewBox="0 0 24 24">
        <path d="M4 4H20C21.1 4 22 4.9 22 6V18C22 19.1 21.1 20 20 20H4C2.9 20 2 19.1 2 18V6C2 4.9 2.9 4 4 4Z"
              stroke="#FF8800" stroke-width="2" stroke-linecap="round" stroke-linejoin="round"/>
        <path d="M22 6L12 13L2 6" stroke="#FF8800" stroke-width="2" stroke-linecap="round" stroke-linejoin="round"/>
    </symbol>

    <symbol id="heart" viewBox="0 0 24 24">
        <path d="M20.84 4.60999C20.3292 4.099 19.7228 3.69364 19.0554 3.41708C18.3879 3.14052 17.6725 2.99817 16.95 2.99817C16.2275 2.99817 15.5121 3.14052 14.8446 3.41708C14.1772 3.69364 13.5708 4.099 13.06 4.60999L12 5.66999L10.94 4.60999C9.9083 3.5783 8.50903 2.9987 7.05 2.9987C5.59096 2.9987 4.19169 3.5783 3.16 4.60999C2.1283 5.64169 1.54871 7.04096 1.54871 8.49999C1.54871 9.95903 2.1283 11.3583 3.16 12.39L4.22 13.45L12 21.23L19.78 13.45L20.84 12.39C21.351 11.8792 21.7563 11.2728 22.0329 10.6053C22.3095 9.93789 22.4518 9.22248 22.4518 8.49999C22.4518 7.77751 22.3095 7.0621 22.0329 6.39464C21.7563 5.72718 21.351 5.12075 20.84 4.60999V4.60999Z"
              stroke="#FF8800" stroke-width="2" stroke-linecap="round" stroke-linejoin="round"/>
    </symbol>


    <symbol id="share" viewBox="0 0 24 24">
        <path d="M18 8C19.6569 8 21 6.65685 21 5C21 3.34315 19.6569 2 18 2C16.3431 2 15 3.34315 15 5C15 6.65685 16.3431 8 18 8Z"
              stroke="black" stroke-width="2" stroke-linecap="round" stroke-linejoin="round"/>
        <path d="M6 15C7.65685 15 9 13.6569 9 12C9 10.3431 7.65685 9 6 9C4.34315 9 3 10.3431 3 12C3 13.6569 4.34315 15 6 15Z"
              stroke="black" stroke-width="2" stroke-linecap="round" stroke-linejoin="round"/>
        <path d="M18 22C19.6569 22 21 20.6569 21 19C21 17.3431 19.6569 16 18 16C16.3431 16 15 17.3431 15 19C15 20.6569 16.3431 22 18 22Z"
              stroke="black" stroke-width="2" stroke-linecap="round" stroke-linejoin="round"/>
        <path d="M8.58997 13.51L15.42 17.49" stroke="black" stroke-width="2" stroke-linecap="round"
              stroke-linejoin="round"/>
        <path d="M15.41 6.50999L8.58997 10.49" stroke="black" stroke-width="2" stroke-linecap="round"
              stroke-linejoin="round"/>
    </symbol>

    <symbol id="grid" viewBox="0 0 24 24">
        <path d="M10 3H3V10H10V3Z" stroke="black" stroke-width="2" stroke-linecap="round" stroke-linejoin="round"/>
        <path d="M21 3H14V10H21V3Z" stroke="black" stroke-width="2" stroke-linecap="round" stroke-linejoin="round"/>
        <path d="M21 14H14V21H21V14Z" stroke="black" stroke-width="2" stroke-linecap="round" stroke-linejoin="round"/>
        <path d="M10 14H3V21H10V14Z" stroke="black" stroke-width="2" stroke-linecap="round" stroke-linejoin="round"/>
    </symbol>


    <symbol id="list" viewBox="0 0 24 24">
        <path d="M8 6H21" stroke="black" stroke-width="2" stroke-linecap="round" stroke-linejoin="round"/>
        <path d="M8 12H21" stroke="black" stroke-width="2" stroke-linecap="round" stroke-linejoin="round"/>
        <path d="M8 18H21" stroke="black" stroke-width="2" stroke-linecap="round" stroke-linejoin="round"/>
        <path d="M3 6H3.01" stroke="black" stroke-width="2" stroke-linecap="round" stroke-linejoin="round"/>
        <path d="M3 12H3.01" stroke="black" stroke-width="2" stroke-linecap="round" stroke-linejoin="round"/>
        <path d="M3 18H3.01" stroke="black" stroke-width="2" stroke-linecap="round" stroke-linejoin="round"/>
    </symbol>

    <symbol id="user" viewBox="0 0 24 24">
        <path d="M16 21V19C16 17.9391 15.5786 16.9217 14.8284 16.1716C14.0783 15.4214 13.0609 15 12 15H5C3.93913 15 2.92172 15.4214 2.17157 16.1716C1.42143 16.9217 1 17.9391 1 19V21"
              stroke="#FF8800" stroke-width="2" stroke-linecap="round" stroke-linejoin="round"/>
        <path d="M8.5 11C10.7091 11 12.5 9.20914 12.5 7C12.5 4.79086 10.7091 3 8.5 3C6.29086 3 4.5 4.79086 4.5 7C4.5 9.20914 6.29086 11 8.5 11Z"
              stroke="#FF8800" stroke-width="2" stroke-linecap="round" stroke-linejoin="round"/>
        <path d="M17 11L19 13L23 9" stroke="#FF8800" stroke-width="2" stroke-linecap="round" stroke-linejoin="round"/>
    </symbol>

    <symbol id="arrow-left" viewBox="0 0 443.52 443.52">
        <g>
            <g>
                <path d="M143.492,221.863L336.226,29.129c6.663-6.664,6.663-17.468,0-24.132c-6.665-6.662-17.468-6.662-24.132,0l-204.8,204.8
			c-6.662,6.664-6.662,17.468,0,24.132l204.8,204.8c6.78,6.548,17.584,6.36,24.132-0.42c6.387-6.614,6.387-17.099,0-23.712
			L143.492,221.863z"/>
            </g>
        </g>
    </symbol>

    <symbol id="arrow-right" viewBox="0 0 443.52 443.52">
        <g>
            <g>
                <path d="M336.226,209.591l-204.8-204.8c-6.78-6.548-17.584-6.36-24.132,0.42c-6.388,6.614-6.388,17.099,0,23.712l192.734,192.734
			L107.294,414.391c-6.663,6.664-6.663,17.468,0,24.132c6.665,6.663,17.468,6.663,24.132,0l204.8-204.8
			C342.889,227.058,342.889,216.255,336.226,209.591z"/>
            </g>
        </g>
    </symbol>

    <symbol id="check" viewBox="0 0 24 25">
        <path d="M20 6.04L9 17.04L4 12.04" stroke-width="2" stroke-linecap="round"
              stroke-linejoin="round"/>
    </symbol>

</svg>